<svg id="Layer_1" data-name="Layer 1" xmlns="http://www.w3.org/2000/svg" viewBox="0 0 172.188 170.66"><defs><style>.cls-1{fill:none;stroke:#fff;stroke-miterlimit:10;stroke-width:14px;}</style></defs><title>adam-spiral-logo</title><path class="cls-1" d="M6.617,36.8a97.2,97.2,0,0,1,137.462,0h0a77.761,77.761,0,0,1,0,109.97,62.209,62.209,0,0,1-87.976,0,49.767,49.767,0,0,1,0-70.381,39.813,39.813,0,0,1,56.3,0,31.851,31.851,0,0,1,0,45.044,25.481,25.481,0,0,1-36.035,0,20.384,20.384,0,0,1,0-28.827h0a16.308,16.308,0,0,1,23.062,0,13.046,13.046,0,0,1,0,18.45h0" transform="translate(-1.667 -1.333)"/></svg>