<svg id="svg2" xmlns="http://www.w3.org/2000/svg" viewBox="0 0 92.842 74.627"><defs><style>.cls-1{fill:#fff;}</style></defs><title>agile2</title><g id="g4"><path id="path6" class="cls-1" d="M92.842,69.2l-9.069-4.856,0.111,3.479H57.276a38.763,38.763,0,0,1-5.832,3.24H83.986L84.1,74.627,92.842,69.2h0Z" transform="translate(0 0)"/><path id="path8" class="cls-1" d="M60.657,60.658a35.505,35.505,0,0,0,.7-49.529l2.219-3L62.8,8.038l-5.545-.629-3.9-.443,1.031,2.365,2.994,6.881L57.464,16.4l1.926-2.606A32.276,32.276,0,0,1,17.576,62.359l0.787,2.54-2.592.172a35.429,35.429,0,0,0,19.761,5.994h3.3a35.432,35.432,0,0,0,11.881-3.24H50.374A35.39,35.39,0,0,0,60.657,60.658Z" transform="translate(0 0)"/><path id="path10" class="cls-1" d="M9.134,62.5l4.332,0.492,2.325,0.265h0l-2.874-6.6-0.969-2.226-0.264-.605h0l-1.372,1.854A32.279,32.279,0,0,1,51.49,7.466l-0.7-2.142,3.13-.208A35.534,35.534,0,0,0,8.316,58.38l-0.51.689L5.567,62.1l0.712,0.082,0.2,0.022Z" transform="translate(0 0)"/><path id="path12" class="cls-1" d="M27.51,15.774a21.321,21.321,0,0,0,6.168,41l0.411,2.742,0.433-.344,3.033-2.415,1.365-1.085-2.077-.817-3.3-1.3-0.369-.146,0.205,1.369A19.368,19.368,0,0,1,30.4,16.853l-1.208-.609,1.241-1.417A21.583,21.583,0,0,0,27.51,15.774Z" transform="translate(0 0)"/><path id="path14" class="cls-1" d="M43.554,55.289A21.319,21.319,0,0,0,36.137,14.22L35.8,12.005l-0.369.293-2.62,2.085-1.842,1.466,1.44,0.567,4.19,1.649,0.114,0.044L36.43,16.186a19.366,19.366,0,0,1,2.864,38.345l1.412,0.744L39.68,56.447A20.974,20.974,0,0,0,43.554,55.289Z" transform="translate(0 0)"/></g></svg>