<svg id="Layer_1" data-name="Layer 1" xmlns="http://www.w3.org/2000/svg" viewBox="0 0 416.623 512"><defs><style>.cls-1{fill:#fff;}</style></defs><title>learning2</title><g id="Brain-power"><path class="cls-1" d="M197.579,117.325a24.213,24.213,0,1,0,24.219,24.21A24.236,24.236,0,0,0,197.579,117.325Zm0,40.426A16.213,16.213,0,1,1,213.8,141.535,16.231,16.231,0,0,1,197.579,157.75Z" transform="translate(-47.688)"/><path class="cls-1" d="M349.141,171.794A51.522,51.522,0,0,0,338.4,154.141a4.217,4.217,0,0,0-4.727-1.008l-10.07,4.309a42.974,42.974,0,0,0-11.29-6.183l-1.054-10.137a4.181,4.181,0,0,0-3.39-3.684,57.591,57.591,0,0,0-21.329,0,4.177,4.177,0,0,0-3.39,3.68l-1.062,10.137a43.1,43.1,0,0,0-11.289,6.187l-5.378-2.3a4.057,4.057,0,0,0,2.221-3.019,72.2,72.2,0,0,0,0-21.16,4.077,4.077,0,0,0-3.71-3.461l-14.836-1.165A55.35,55.35,0,0,0,244.4,115l9.671-11.325a4.076,4.076,0,0,0,.172-5.07A72.07,72.07,0,0,0,239.29,83.645a4.072,4.072,0,0,0-5.078.176l-11.32,9.672a54.807,54.807,0,0,0-11.328-4.7l-1.172-14.836a4.072,4.072,0,0,0-3.461-3.707,71.148,71.148,0,0,0-21.157,0,4.072,4.072,0,0,0-3.461,3.707l-1.172,14.836a54.806,54.806,0,0,0-11.328,4.7l-11.32-9.672a4.094,4.094,0,0,0-5.078-.176A72.421,72.421,0,0,0,138.454,98.6a4.072,4.072,0,0,0,.18,5.074L148.305,115a55.012,55.012,0,0,0-4.7,11.335L128.774,127.5a4.074,4.074,0,0,0-3.71,3.457,71.17,71.17,0,0,0,0,21.168,4.074,4.074,0,0,0,3.71,3.457l14.836,1.164a55,55,0,0,0,4.7,11.336L138.634,179.4a4.072,4.072,0,0,0-.18,5.074,72.5,72.5,0,0,0,14.961,14.957,4.093,4.093,0,0,0,5.078-.175l11.32-9.676a54.894,54.894,0,0,0,11.328,4.7l1.172,14.836a4.073,4.073,0,0,0,3.461,3.707,71.326,71.326,0,0,0,21.157,0,4.073,4.073,0,0,0,3.461-3.707l1.172-14.836a54.894,54.894,0,0,0,11.328-4.7l11.32,9.676a4.037,4.037,0,0,0,2.293.892,54.662,54.662,0,0,0-18.457-.7,3.909,3.909,0,0,0-3.336,3.23l-1.7,10.258a42.02,42.02,0,0,0-11.625,5.63l-9.68-4.906a3.933,3.933,0,0,0-4.492.687,51.749,51.749,0,0,0-11.554,16.906,3.9,3.9,0,0,0,1.187,4.59l8.359,6.543a39.07,39.07,0,0,0-.75,12.313l-9.125,5.554a3.9,3.9,0,0,0-1.719,4.4,51.072,51.072,0,0,0,9.414,18.113,3.924,3.924,0,0,0,4.39,1.215l10.211-3.77a41.728,41.728,0,0,0,10.828,6.9l0.43,10.355a3.9,3.9,0,0,0,2.946,3.622,55.476,55.476,0,0,0,20.851,1.191,3.908,3.908,0,0,0,3.344-3.23l1.687-10.258a42.045,42.045,0,0,0,11.625-5.629l9.68,4.906a3.912,3.912,0,0,0,4.492-.687,51.766,51.766,0,0,0,11.554-16.91,3.9,3.9,0,0,0-1.187-4.59l-8.359-6.539a38.4,38.4,0,0,0,.75-12.312l9.126-5.555a3.894,3.894,0,0,0,1.718-4.4,50.919,50.919,0,0,0-8.19-16.438l1.877-.8a43.194,43.194,0,0,0,11.282,6.191l1.062,10.129a4.185,4.185,0,0,0,3.383,3.68,57.261,57.261,0,0,0,21.343,0,4.186,4.186,0,0,0,3.383-3.684l1.054-10.125a43.242,43.242,0,0,0,11.29-6.191l10.07,4.308a4.191,4.191,0,0,0,4.727-1.007,51.4,51.4,0,0,0,10.742-17.657,4.2,4.2,0,0,0-1.586-4.875l-8.758-5.953a38.312,38.312,0,0,0,0-12.023l8.758-5.954A4.19,4.19,0,0,0,349.141,171.794Zm-103.129-1.826-1.613-1.889a55.45,55.45,0,0,0,4.7-11.336l5.076-.4A51.2,51.2,0,0,0,246.012,169.967ZM225.977,181.5a4.115,4.115,0,0,0-4.812-.355,46.663,46.663,0,0,1-14.352,5.953,4.072,4.072,0,0,0-3.148,3.649l-1.133,14.418a63.931,63.931,0,0,1-12.36,0l-1.133-14.418a4.072,4.072,0,0,0-3.148-3.649,46.663,46.663,0,0,1-14.352-5.953,4.09,4.09,0,0,0-4.812.355l-11,9.4a64.588,64.588,0,0,1-8.742-8.738l9.4-11a4.073,4.073,0,0,0,.359-4.809A46.859,46.859,0,0,1,150.79,152a4.073,4.073,0,0,0-3.649-3.149l-14.414-1.133a62.755,62.755,0,0,1,0-12.355l14.414-1.133a4.073,4.073,0,0,0,3.649-3.149,46.851,46.851,0,0,1,5.953-14.355,4.08,4.08,0,0,0-.359-4.813l-9.4-11a64.182,64.182,0,0,1,8.742-8.738l11,9.4a4.094,4.094,0,0,0,4.812.356,46.684,46.684,0,0,1,14.352-5.954,4.071,4.071,0,0,0,3.148-3.648l1.133-14.418a64.059,64.059,0,0,1,12.36,0l1.133,14.418a4.071,4.071,0,0,0,3.148,3.648,46.685,46.685,0,0,1,14.352,5.954,4.116,4.116,0,0,0,4.812-.356l11-9.4a64.049,64.049,0,0,1,8.734,8.734l-9.4,11a4.085,4.085,0,0,0-.351,4.809,46.817,46.817,0,0,1,5.953,14.363,4.07,4.07,0,0,0,3.649,3.141l14.414,1.133a64.008,64.008,0,0,1,0,12.355l-14.414,1.133a4.07,4.07,0,0,0-3.649,3.141,46.817,46.817,0,0,1-5.953,14.363,4.085,4.085,0,0,0,.351,4.809l9.4,11a63.876,63.876,0,0,1-8.734,8.742Zm13.313,17.934a71.993,71.993,0,0,0,14.953-14.961,3.994,3.994,0,0,0,.715-2.294l0.652,0.443a38.311,38.311,0,0,0,0,12.023l-8.766,5.953a4.189,4.189,0,0,0-1.594,4.879,51.029,51.029,0,0,0,9.037,15.594l-1.185.438a41.882,41.882,0,0,0-10.829-6.894l-0.43-10.355a3.9,3.9,0,0,0-2.945-3.622c-0.7-.175-1.4-0.277-2.1-0.427A4.061,4.061,0,0,0,239.29,199.434Zm20.75,42.254a3.909,3.909,0,0,0-1.812,3.984,30.884,30.884,0,0,1-.859,14.047A3.9,3.9,0,0,0,258.7,263.9l7.945,6.215a43.733,43.733,0,0,1-6.656,9.687l-9.258-4.691a3.889,3.889,0,0,0-4.188.422,33.619,33.619,0,0,1-13.164,6.356,3.9,3.9,0,0,0-2.945,3.156l-1.61,9.789a47.571,47.571,0,0,1-12.258-.7l-0.406-9.875a3.909,3.909,0,0,0-2.57-3.507,33.749,33.749,0,0,1-12.282-7.794,3.927,3.927,0,0,0-4.109-.906l-9.758,3.6a43.038,43.038,0,0,1-5.414-10.348l8.672-5.282a3.892,3.892,0,0,0,1.812-3.992,30.62,30.62,0,0,1,.86-14.035,3.892,3.892,0,0,0-1.329-4.187l-7.945-6.215a43.754,43.754,0,0,1,6.656-9.683l9.258,4.691a3.939,3.939,0,0,0,4.188-.422,34.066,34.066,0,0,1,13.156-6.356,3.9,3.9,0,0,0,2.953-3.156l1.618-9.793a47.33,47.33,0,0,1,12.25.7l0.406,9.879a3.9,3.9,0,0,0,2.57,3.507,33.67,33.67,0,0,1,12.282,7.794,3.9,3.9,0,0,0,4.109.906l9.766-3.6a42.9,42.9,0,0,1,5.406,10.351Zm71.75-64.438a4.189,4.189,0,0,0-1.711,4.442,29.973,29.973,0,0,1,0,13.882,4.192,4.192,0,0,0,1.711,4.442l8.266,5.617a42.472,42.472,0,0,1-5.9,9.6l-9.594-4.1a4.208,4.208,0,0,0-4.406.7,34.548,34.548,0,0,1-12.914,7.05,4.186,4.186,0,0,0-2.976,3.586l-1.008,9.613a49.133,49.133,0,0,1-12.118,0l-1.007-9.617a4.183,4.183,0,0,0-2.977-3.582,34.554,34.554,0,0,1-12.914-7.05,4.19,4.19,0,0,0-4.406-.7l-9.586,4.109a42.686,42.686,0,0,1-5.914-9.6l8.273-5.617a4.179,4.179,0,0,0,1.719-4.442,29.973,29.973,0,0,1,0-13.882,4.179,4.179,0,0,0-1.719-4.442l-8.273-5.618a43.035,43.035,0,0,1,5.914-9.594l9.586,4.106a4.18,4.18,0,0,0,4.406-.7,34.455,34.455,0,0,1,12.906-7.043,4.174,4.174,0,0,0,2.985-3.582l1.007-9.625a49.846,49.846,0,0,1,12.118,0l1.008,9.621a4.173,4.173,0,0,0,2.984,3.586,34.449,34.449,0,0,1,12.906,7.043,4.181,4.181,0,0,0,4.406.7l9.594-4.106a43.023,43.023,0,0,1,5.9,9.594Z" transform="translate(-47.688)"/><path class="cls-1" d="M464.274,265.133a8,8,0,0,0-2.187-4.855c-0.289-.3-27.7-29-44.734-53.371,8.774-31.621,5.125-60.336,1.844-75.6,4.742-.316,9.734-1.668,13.179-5.3,2.1-2.214,5.29-7.141,3.016-15.258-21.618-76.977-69.258-82.219-81.813-82.219H353.4C343.165,22.782,298.493.031,236.892,0c-61.726.157-189.2,39.622-189.2,160.618,0,68.633,21.836,104.082,41.1,135.355,14.446,23.461,26.93,43.726,25.68,74.16-2.313,56.161-46.094,128.989-46.539,129.719A8,8,0,0,0,74.774,512H313.228a8.011,8.011,0,0,0,7.742-10.027c-2.938-11.222-8.086-43.578,3.133-58.343,3.976-5.219,9.812-7.817,17.867-7.938,35.038-.539,56.382-6.4,67.179-18.454,10.375-11.582,9.008-25.93,7.8-38.586a100.8,100.8,0,0,1-.7-13.45c5.07-4.113,7.938-8.449,8.75-13.179a17.6,17.6,0,0,0-2.86-12.512c8.891-2.687,12.664-7.848,14.258-11.848,3.546-8.886-.188-18.859-5.9-28.789C465.024,287.051,464.477,267.508,464.274,265.133Zm-48.046,21.254a8,8,0,0,0-4.774,12.148c2.977,4.539,12.023,18.344,10.086,23.2-0.437,1.094-2.343,2.11-5.226,2.79-3.062.718-10.226,2.41-12.484,8.55-2.047,5.551,1.289,10.1,3.281,12.817,0.719,0.98,2.062,2.809,2.118,3.442,0,0-.414,1.769-5.133,4.988a7.985,7.985,0,0,0-3.406,5.5c-0.946,6.8-.289,13.683.336,20.343,1.023,10.75,1.906,20.032-3.8,26.4-7.4,8.258-26.07,12.672-55.508,13.126-12.922.2-23.43,5.133-30.367,14.281-13.274,17.481-10.594,46.7-7.961,62.027H88.532c13.046-23.934,40.007-78.636,41.922-125.21,1.453-35.321-12.875-58.582-28.047-83.207-18.148-29.465-38.718-62.863-38.718-126.965C63.688,51.68,180.407,16.145,236.938,16h0.586c63.859,0,109.242,27.172,109.7,27.446a8.15,8.15,0,0,0,4.977,1.133c0.382-.09,46.9-3.894,67.789,70.5l0.008,0.039a28.3,28.3,0,0,1-9.633-.465,8,8,0,0,0-9.321,10.386c0.133,0.383,12.852,38.8-.078,80.918a7.989,7.989,0,0,0,1.008,6.808c14.586,21.7,37.625,46.91,45.7,55.539C445.923,272.266,439.532,280.63,416.228,286.387Z" transform="translate(-47.688)"/></g></svg>