<svg id="Layer_1" data-name="Layer 1" xmlns="http://www.w3.org/2000/svg" viewBox="0 0 1121.097 899.678"><defs><style>.cls-1{fill:none;stroke:#fff;stroke-miterlimit:10;stroke-width:14px;opacity:0.25;}</style></defs><title>spiral-bg</title><path class="cls-1" d="M1363.553-99.049C1484.176,234.7,1311.4,603.037,977.658,723.66h0c-267,96.5-561.671-41.722-658.17-308.72-77.2-213.6,33.378-449.336,246.976-526.536,170.88-61.758,359.471,26.7,421.23,197.581,49.392,136.692-21.367,287.544-158.052,336.955C720.275,462.467,599.576,405.853,560.05,296.489A168.447,168.447,0,0,1,661.212,80.82a134.752,134.752,0,0,1,172.53,80.926h0A107.807,107.807,0,0,1,769,299.772a86.243,86.243,0,0,1-110.423-51.793h0" transform="translate(-287.888 138.272)"/></svg>